<svg width="35" height="34" viewBox="0 0 35 34" fill="none" xmlns="http://www.w3.org/2000/svg">
<path fill-rule="evenodd" clip-rule="evenodd" d="M6.74671 0C6.74671 0 24.958 18.9784 17.648 34.0001C17.648 34.0001 12.5182 27.3637 6.36421 24.3356C6.36421 24.3356 7.38846 15.3681 0.205933 9.43079C0.205933 9.43079 9.95334 13.6234 12.0061 20.143C12.0061 20.143 14.3139 10.829 6.74671 0ZM34.2061 8.50003C34.2061 8.50003 26.896 15.0196 28.1774 23.0563C28.1774 23.0563 23.0476 26.0823 22.1509 27.9439C22.1509 27.9439 22.663 13.8551 34.2061 8.50003ZM26.9959 0C26.9959 0 21.3519 9.78141 21.8661 17.0001C21.8661 17.0001 20.7123 18.6299 20.3255 20.0282C20.3255 20.0282 18.9166 14.6732 17.7606 13.3897L17.7946 13.3259C18.2239 12.5057 22.7246 3.98652 26.9959 0Z" fill="#E2E7F4"/>
</svg>
