<svg width="35" height="34" viewBox="0 0 35 34" fill="none" xmlns="http://www.w3.org/2000/svg">
<path fill-rule="evenodd" clip-rule="evenodd" d="M18.3005 12.0488L21.9194 30.3579L17.3868 34.0001L12.8541 30.3579L16.473 12.0488L17.3868 13.2792L18.3005 12.0488ZM34.3868 7.23353C33.7408 12.5418 25.6339 12.0382 25.6339 12.0382L29.3527 16.9576L23.3814 19.3588L20.7868 11.1223L24.7329 7.23353H34.3868ZM10.0406 7.23353L13.9868 11.1202L11.3943 19.3588L5.41874 16.9576L9.1375 12.036C9.1375 12.036 1.03485 12.5397 0.386719 7.2314L10.0406 7.23353ZM21.6326 0L23.0542 2.51813L17.3868 9.46904L11.7194 2.51813L13.1431 0H21.6326Z" fill="#E2E7F4"/>
</svg>
